<svg id="Icon_Account_Experience_Broken_64px" data-name="Icon/Account Experience/Broken/64px" xmlns="http://www.w3.org/2000/svg" width="103.862" height="104.753" viewBox="0 0 103.862 104.753">
  <g id="Combined_Shape" data-name="Combined Shape" transform="translate(0 0)">
    <path id="Combined_Shape-2" data-name="Combined Shape" d="M61.91,97.556a24.577,24.577,0,1,1,17.378,7.2A24.413,24.413,0,0,1,61.91,97.556ZM79.271,83.063l9.3,9.3,2.9-2.9L82.2,80.2l9.375-9.159L88.709,68.1,79.3,77.3,70,68l-2.9,2.9,9.265,9.265L67,89.32l2.866,2.934,9.4-9.192h0Zm-49.447,5.7-6.179-2.591a3.733,3.733,0,0,1-2.03-4.879l2.358-5.671a.2.2,0,0,0-.071-.261A36.689,36.689,0,0,1,13.681,65.136a.2.2,0,0,0-.25-.077L7.745,67.4a3.742,3.742,0,0,1-4.89-2.06L.285,59.2A3.774,3.774,0,0,1,.3,56.3,3.7,3.7,0,0,1,2.344,54.3l5.638-2.346a.2.2,0,0,0,.136-.21,36.719,36.719,0,0,1,0-14.464.216.216,0,0,0-.1-.227L2.316,34.681A3.747,3.747,0,0,1,.279,29.8l2.559-6.174a3.76,3.76,0,0,1,4.907-2.038l5.673,2.36a.2.2,0,0,0,.261-.071A36.645,36.645,0,0,1,23.9,13.663a.2.2,0,0,0,.077-.251l-2.361-5.68a3.752,3.752,0,0,1,.018-2.907,3.685,3.685,0,0,1,2.042-1.987L29.818.288a3.736,3.736,0,0,1,4.893,2.058l2.348,5.64c.038.092.133.161.207.137a36.79,36.79,0,0,1,14.467-.007.208.208,0,0,0,.226-.1l2.37-5.692a3.757,3.757,0,0,1,4.9-2.036L65.4,2.844a3.76,3.76,0,0,1,2.041,4.9l-2.361,5.676a.2.2,0,0,0,.069.26A36.641,36.641,0,0,1,75.375,23.907a.2.2,0,0,0,.25.077l5.68-2.362a3.762,3.762,0,0,1,4.915,2.042l2.554,6.159a3.742,3.742,0,0,1-2.058,4.9l-5.762,2.464.077.185.038.357a43.892,43.892,0,0,1,.421,12.26l-4.077-.447a39.714,39.714,0,0,0-.332-10.845A4.316,4.316,0,0,1,79.5,33.276l5.341-2.221-2.287-5.513-5.344,2.224a4.315,4.315,0,0,1-5.252-1.583A32.618,32.618,0,0,0,62.881,17.1,4.3,4.3,0,0,1,61.3,11.832L63.521,6.5,57.987,4.21,55.76,9.562a4.3,4.3,0,0,1-4.811,2.58,32.672,32.672,0,0,0-12.849,0,4.3,4.3,0,0,1-4.822-2.563l-2.23-5.358L25.546,6.5l2.212,5.323a4.3,4.3,0,0,1-1.581,5.251,32.559,32.559,0,0,0-9.084,9.082,4.313,4.313,0,0,1-5.262,1.578L6.5,25.516,4.213,31.028l5.344,2.222a4.317,4.317,0,0,1,2.584,4.808,32.632,32.632,0,0,0-.006,12.852,4.309,4.309,0,0,1-2.563,4.822l-5.358,2.23,2.3,5.506,5.332-2.194a4.3,4.3,0,0,1,5.243,1.587,32.573,32.573,0,0,0,9.082,9.082,4.3,4.3,0,0,1,1.577,5.264l-2.209,5.31,5.527,2.315L33.3,79.477a4.313,4.313,0,0,1,5.472-2.4,38.142,38.142,0,0,0,9.886.811l.3,4.09a41.982,41.982,0,0,1-11.219-.927l-.461-.158a.363.363,0,0,0-.192.151L34.726,86.72a3.725,3.725,0,0,1-2.03,2.033,3.76,3.76,0,0,1-2.872.006ZM26.035,44.694a18.7,18.7,0,1,1,18.7,18.7A18.717,18.717,0,0,1,26.035,44.694Zm4.1,0A14.6,14.6,0,1,0,44.731,30.1,14.611,14.611,0,0,0,30.137,44.694Z" transform="translate(0 0)" fill="none"/>
    <path id="Combined_Shape-3" data-name="Combined Shape" d="M61.91,97.556a24.577,24.577,0,1,1,17.378,7.2A24.413,24.413,0,0,1,61.91,97.556ZM79.271,83.063l9.3,9.3,2.9-2.9L82.2,80.2l9.375-9.159L88.709,68.1,79.3,77.3,70,68l-2.9,2.9,9.265,9.265L67,89.32l2.866,2.934,9.4-9.192h0Zm-49.447,5.7-6.179-2.591a3.733,3.733,0,0,1-2.03-4.879l2.358-5.671a.2.2,0,0,0-.071-.261A36.689,36.689,0,0,1,13.681,65.136a.2.2,0,0,0-.25-.077L7.745,67.4a3.742,3.742,0,0,1-4.89-2.06L.285,59.2A3.774,3.774,0,0,1,.3,56.3,3.7,3.7,0,0,1,2.344,54.3l5.638-2.346a.2.2,0,0,0,.136-.21,36.719,36.719,0,0,1,0-14.464.216.216,0,0,0-.1-.227L2.316,34.681A3.747,3.747,0,0,1,.279,29.8l2.559-6.174a3.76,3.76,0,0,1,4.907-2.038l5.673,2.36a.2.2,0,0,0,.261-.071A36.645,36.645,0,0,1,23.9,13.663a.2.2,0,0,0,.077-.251l-2.361-5.68a3.752,3.752,0,0,1,.018-2.907,3.685,3.685,0,0,1,2.042-1.987L29.818.288a3.736,3.736,0,0,1,4.893,2.058l2.348,5.64c.038.092.133.161.207.137a36.79,36.79,0,0,1,14.467-.007.208.208,0,0,0,.226-.1l2.37-5.692a3.757,3.757,0,0,1,4.9-2.036L65.4,2.844a3.76,3.76,0,0,1,2.041,4.9l-2.361,5.676a.2.2,0,0,0,.069.26A36.641,36.641,0,0,1,75.375,23.907a.2.2,0,0,0,.25.077l5.68-2.362a3.762,3.762,0,0,1,4.915,2.042l2.554,6.159a3.742,3.742,0,0,1-2.058,4.9l-5.762,2.464.077.185.038.357a43.892,43.892,0,0,1,.421,12.26l-4.077-.447a39.714,39.714,0,0,0-.332-10.845A4.316,4.316,0,0,1,79.5,33.276l5.341-2.221-2.287-5.513-5.344,2.224a4.315,4.315,0,0,1-5.252-1.583A32.618,32.618,0,0,0,62.881,17.1,4.3,4.3,0,0,1,61.3,11.832L63.521,6.5,57.987,4.21,55.76,9.562a4.3,4.3,0,0,1-4.811,2.58,32.672,32.672,0,0,0-12.849,0,4.3,4.3,0,0,1-4.822-2.563l-2.23-5.358L25.546,6.5l2.212,5.323a4.3,4.3,0,0,1-1.581,5.251,32.559,32.559,0,0,0-9.084,9.082,4.313,4.313,0,0,1-5.262,1.578L6.5,25.516,4.213,31.028l5.344,2.222a4.317,4.317,0,0,1,2.584,4.808,32.632,32.632,0,0,0-.006,12.852,4.309,4.309,0,0,1-2.563,4.822l-5.358,2.23,2.3,5.506,5.332-2.194a4.3,4.3,0,0,1,5.243,1.587,32.573,32.573,0,0,0,9.082,9.082,4.3,4.3,0,0,1,1.577,5.264l-2.209,5.31,5.527,2.315L33.3,79.477a4.313,4.313,0,0,1,5.472-2.4,38.142,38.142,0,0,0,9.886.811l.3,4.09a41.982,41.982,0,0,1-11.219-.927l-.461-.158a.363.363,0,0,0-.192.151L34.726,86.72a3.725,3.725,0,0,1-2.03,2.033,3.76,3.76,0,0,1-2.872.006ZM26.035,44.694a18.7,18.7,0,1,1,18.7,18.7A18.717,18.717,0,0,1,26.035,44.694Zm4.1,0A14.6,14.6,0,1,0,44.731,30.1,14.611,14.611,0,0,0,30.137,44.694Z" transform="translate(0 0)" fill="none"/>
    <path id="Combined_Shape-4" data-name="Combined Shape" d="M61.91,97.556a24.577,24.577,0,1,1,17.378,7.2A24.413,24.413,0,0,1,61.91,97.556ZM79.271,83.063l9.3,9.3,2.9-2.9L82.2,80.2l9.375-9.159L88.709,68.1,79.3,77.3,70,68l-2.9,2.9,9.265,9.265L67,89.32l2.866,2.934,9.4-9.192h0Zm-49.447,5.7-6.179-2.591a3.733,3.733,0,0,1-2.03-4.879l2.358-5.671a.2.2,0,0,0-.071-.261A36.689,36.689,0,0,1,13.681,65.136a.2.2,0,0,0-.25-.077L7.745,67.4a3.742,3.742,0,0,1-4.89-2.06L.285,59.2A3.774,3.774,0,0,1,.3,56.3,3.7,3.7,0,0,1,2.344,54.3l5.638-2.346a.2.2,0,0,0,.136-.21,36.719,36.719,0,0,1,0-14.464.216.216,0,0,0-.1-.227L2.316,34.681A3.747,3.747,0,0,1,.279,29.8l2.559-6.174a3.76,3.76,0,0,1,4.907-2.038l5.673,2.36a.2.2,0,0,0,.261-.071A36.645,36.645,0,0,1,23.9,13.663a.2.2,0,0,0,.077-.251l-2.361-5.68a3.752,3.752,0,0,1,.018-2.907,3.685,3.685,0,0,1,2.042-1.987L29.818.288a3.736,3.736,0,0,1,4.893,2.058l2.348,5.64c.038.092.133.161.207.137a36.79,36.79,0,0,1,14.467-.007.208.208,0,0,0,.226-.1l2.37-5.692a3.757,3.757,0,0,1,4.9-2.036L65.4,2.844a3.76,3.76,0,0,1,2.041,4.9l-2.361,5.676a.2.2,0,0,0,.069.26A36.641,36.641,0,0,1,75.375,23.907a.2.2,0,0,0,.25.077l5.68-2.362a3.762,3.762,0,0,1,4.915,2.042l2.554,6.159a3.742,3.742,0,0,1-2.058,4.9l-5.762,2.464.077.185.038.357a43.892,43.892,0,0,1,.421,12.26l-4.077-.447a39.714,39.714,0,0,0-.332-10.845A4.316,4.316,0,0,1,79.5,33.276l5.341-2.221-2.287-5.513-5.344,2.224a4.315,4.315,0,0,1-5.252-1.583A32.618,32.618,0,0,0,62.881,17.1,4.3,4.3,0,0,1,61.3,11.832L63.521,6.5,57.987,4.21,55.76,9.562a4.3,4.3,0,0,1-4.811,2.58,32.672,32.672,0,0,0-12.849,0,4.3,4.3,0,0,1-4.822-2.563l-2.23-5.358L25.546,6.5l2.212,5.323a4.3,4.3,0,0,1-1.581,5.251,32.559,32.559,0,0,0-9.084,9.082,4.313,4.313,0,0,1-5.262,1.578L6.5,25.516,4.213,31.028l5.344,2.222a4.317,4.317,0,0,1,2.584,4.808,32.632,32.632,0,0,0-.006,12.852,4.309,4.309,0,0,1-2.563,4.822l-5.358,2.23,2.3,5.506,5.332-2.194a4.3,4.3,0,0,1,5.243,1.587,32.573,32.573,0,0,0,9.082,9.082,4.3,4.3,0,0,1,1.577,5.264l-2.209,5.31,5.527,2.315L33.3,79.477a4.313,4.313,0,0,1,5.472-2.4,38.142,38.142,0,0,0,9.886.811l.3,4.09a41.982,41.982,0,0,1-11.219-.927l-.461-.158a.363.363,0,0,0-.192.151L34.726,86.72a3.725,3.725,0,0,1-2.03,2.033,3.76,3.76,0,0,1-2.872.006ZM26.035,44.694a18.7,18.7,0,1,1,18.7,18.7A18.717,18.717,0,0,1,26.035,44.694Zm4.1,0A14.6,14.6,0,1,0,44.731,30.1,14.611,14.611,0,0,0,30.137,44.694Z" transform="translate(0 0)" fill="none"/>
    <path id="Combined_Shape-5" data-name="Combined Shape" d="M61.91,97.556a24.577,24.577,0,1,1,17.378,7.2A24.413,24.413,0,0,1,61.91,97.556ZM79.271,83.063l9.3,9.3,2.9-2.9L82.2,80.2l9.375-9.159L88.709,68.1,79.3,77.3,70,68l-2.9,2.9,9.265,9.265L67,89.32l2.866,2.934,9.4-9.192h0Zm-49.447,5.7-6.179-2.591a3.733,3.733,0,0,1-2.03-4.879l2.358-5.671a.2.2,0,0,0-.071-.261A36.689,36.689,0,0,1,13.681,65.136a.2.2,0,0,0-.25-.077L7.745,67.4a3.742,3.742,0,0,1-4.89-2.06L.285,59.2A3.774,3.774,0,0,1,.3,56.3,3.7,3.7,0,0,1,2.344,54.3l5.638-2.346a.2.2,0,0,0,.136-.21,36.719,36.719,0,0,1,0-14.464.216.216,0,0,0-.1-.227L2.316,34.681A3.747,3.747,0,0,1,.279,29.8l2.559-6.174a3.76,3.76,0,0,1,4.907-2.038l5.673,2.36a.2.2,0,0,0,.261-.071A36.645,36.645,0,0,1,23.9,13.663a.2.2,0,0,0,.077-.251l-2.361-5.68a3.752,3.752,0,0,1,.018-2.907,3.685,3.685,0,0,1,2.042-1.987L29.818.288a3.736,3.736,0,0,1,4.893,2.058l2.348,5.64c.038.092.133.161.207.137a36.79,36.79,0,0,1,14.467-.007.208.208,0,0,0,.226-.1l2.37-5.692a3.757,3.757,0,0,1,4.9-2.036L65.4,2.844a3.76,3.76,0,0,1,2.041,4.9l-2.361,5.676a.2.2,0,0,0,.069.26A36.641,36.641,0,0,1,75.375,23.907a.2.2,0,0,0,.25.077l5.68-2.362a3.762,3.762,0,0,1,4.915,2.042l2.554,6.159a3.742,3.742,0,0,1-2.058,4.9l-5.762,2.464.077.185.038.357a43.892,43.892,0,0,1,.421,12.26l-4.077-.447a39.714,39.714,0,0,0-.332-10.845A4.316,4.316,0,0,1,79.5,33.276l5.341-2.221-2.287-5.513-5.344,2.224a4.315,4.315,0,0,1-5.252-1.583A32.618,32.618,0,0,0,62.881,17.1,4.3,4.3,0,0,1,61.3,11.832L63.521,6.5,57.987,4.21,55.76,9.562a4.3,4.3,0,0,1-4.811,2.58,32.672,32.672,0,0,0-12.849,0,4.3,4.3,0,0,1-4.822-2.563l-2.23-5.358L25.546,6.5l2.212,5.323a4.3,4.3,0,0,1-1.581,5.251,32.559,32.559,0,0,0-9.084,9.082,4.313,4.313,0,0,1-5.262,1.578L6.5,25.516,4.213,31.028l5.344,2.222a4.317,4.317,0,0,1,2.584,4.808,32.632,32.632,0,0,0-.006,12.852,4.309,4.309,0,0,1-2.563,4.822l-5.358,2.23,2.3,5.506,5.332-2.194a4.3,4.3,0,0,1,5.243,1.587,32.573,32.573,0,0,0,9.082,9.082,4.3,4.3,0,0,1,1.577,5.264l-2.209,5.31,5.527,2.315L33.3,79.477a4.313,4.313,0,0,1,5.472-2.4,38.142,38.142,0,0,0,9.886.811l.3,4.09a41.982,41.982,0,0,1-11.219-.927l-.461-.158a.363.363,0,0,0-.192.151L34.726,86.72a3.725,3.725,0,0,1-2.03,2.033,3.76,3.76,0,0,1-2.872.006ZM26.035,44.694a18.7,18.7,0,1,1,18.7,18.7A18.717,18.717,0,0,1,26.035,44.694Zm4.1,0A14.6,14.6,0,1,0,44.731,30.1,14.611,14.611,0,0,0,30.137,44.694Z" transform="translate(0 0)" fill="none"/>
    <path id="Combined_Shape-6" data-name="Combined Shape" d="M61.91,97.556a24.577,24.577,0,1,1,17.378,7.2A24.413,24.413,0,0,1,61.91,97.556ZM79.271,83.063l9.3,9.3,2.9-2.9L82.2,80.2l9.375-9.159L88.709,68.1,79.3,77.3,70,68l-2.9,2.9,9.265,9.265L67,89.32l2.866,2.934,9.4-9.192h0Zm-49.447,5.7-6.179-2.591a3.733,3.733,0,0,1-2.03-4.879l2.358-5.671a.2.2,0,0,0-.071-.261A36.689,36.689,0,0,1,13.681,65.136a.2.2,0,0,0-.25-.077L7.745,67.4a3.742,3.742,0,0,1-4.89-2.06L.285,59.2A3.774,3.774,0,0,1,.3,56.3,3.7,3.7,0,0,1,2.344,54.3l5.638-2.346a.2.2,0,0,0,.136-.21,36.719,36.719,0,0,1,0-14.464.216.216,0,0,0-.1-.227L2.316,34.681A3.747,3.747,0,0,1,.279,29.8l2.559-6.174a3.76,3.76,0,0,1,4.907-2.038l5.673,2.36a.2.2,0,0,0,.261-.071A36.645,36.645,0,0,1,23.9,13.663a.2.2,0,0,0,.077-.251l-2.361-5.68a3.752,3.752,0,0,1,.018-2.907,3.685,3.685,0,0,1,2.042-1.987L29.818.288a3.736,3.736,0,0,1,4.893,2.058l2.348,5.64c.038.092.133.161.207.137a36.79,36.79,0,0,1,14.467-.007.208.208,0,0,0,.226-.1l2.37-5.692a3.757,3.757,0,0,1,4.9-2.036L65.4,2.844a3.76,3.76,0,0,1,2.041,4.9l-2.361,5.676a.2.2,0,0,0,.069.26A36.641,36.641,0,0,1,75.375,23.907a.2.2,0,0,0,.25.077l5.68-2.362a3.762,3.762,0,0,1,4.915,2.042l2.554,6.159a3.742,3.742,0,0,1-2.058,4.9l-5.762,2.464.077.185.038.357a43.892,43.892,0,0,1,.421,12.26l-4.077-.447a39.714,39.714,0,0,0-.332-10.845A4.316,4.316,0,0,1,79.5,33.276l5.341-2.221-2.287-5.513-5.344,2.224a4.315,4.315,0,0,1-5.252-1.583A32.618,32.618,0,0,0,62.881,17.1,4.3,4.3,0,0,1,61.3,11.832L63.521,6.5,57.987,4.21,55.76,9.562a4.3,4.3,0,0,1-4.811,2.58,32.672,32.672,0,0,0-12.849,0,4.3,4.3,0,0,1-4.822-2.563l-2.23-5.358L25.546,6.5l2.212,5.323a4.3,4.3,0,0,1-1.581,5.251,32.559,32.559,0,0,0-9.084,9.082,4.313,4.313,0,0,1-5.262,1.578L6.5,25.516,4.213,31.028l5.344,2.222a4.317,4.317,0,0,1,2.584,4.808,32.632,32.632,0,0,0-.006,12.852,4.309,4.309,0,0,1-2.563,4.822l-5.358,2.23,2.3,5.506,5.332-2.194a4.3,4.3,0,0,1,5.243,1.587,32.573,32.573,0,0,0,9.082,9.082,4.3,4.3,0,0,1,1.577,5.264l-2.209,5.31,5.527,2.315L33.3,79.477a4.313,4.313,0,0,1,5.472-2.4,38.142,38.142,0,0,0,9.886.811l.3,4.09a41.982,41.982,0,0,1-11.219-.927l-.461-.158a.363.363,0,0,0-.192.151L34.726,86.72a3.725,3.725,0,0,1-2.03,2.033,3.76,3.76,0,0,1-2.872.006ZM26.035,44.694a18.7,18.7,0,1,1,18.7,18.7A18.717,18.717,0,0,1,26.035,44.694Zm4.1,0A14.6,14.6,0,1,0,44.731,30.1,14.611,14.611,0,0,0,30.137,44.694Z" transform="translate(0 0)" fill="none"/>
    <path id="Combined_Shape-7" data-name="Combined Shape" d="M61.909,97.556a24.576,24.576,0,1,1,17.378,7.2A24.414,24.414,0,0,1,61.909,97.556ZM79.271,83.062l9.3,9.3,2.9-2.9L82.2,80.2l9.373-9.16L88.709,68.1,79.3,77.295,70,68l-2.9,2.9,9.265,9.266L67,89.32l2.867,2.934,9.406-9.192h0Zm-49.447,5.7-6.18-2.591a3.733,3.733,0,0,1-2.029-4.879l2.358-5.672a.2.2,0,0,0-.07-.261,36.657,36.657,0,0,1-10.221-10.22.2.2,0,0,0-.249-.077L7.745,67.4a3.742,3.742,0,0,1-4.891-2.06L.285,59.2A3.78,3.78,0,0,1,.3,56.3,3.7,3.7,0,0,1,2.344,54.3l5.638-2.345a.2.2,0,0,0,.136-.211,36.72,36.72,0,0,1,0-14.464.217.217,0,0,0-.105-.228L2.316,34.682A3.748,3.748,0,0,1,.28,29.8L2.838,23.63a3.76,3.76,0,0,1,4.907-2.038l5.674,2.36a.2.2,0,0,0,.261-.071A36.641,36.641,0,0,1,23.9,13.662a.2.2,0,0,0,.076-.251l-2.361-5.68a3.755,3.755,0,0,1,.016-2.907,3.693,3.693,0,0,1,2.043-1.988L29.818.288a3.737,3.737,0,0,1,4.894,2.059l2.347,5.64c.038.09.133.161.207.136a36.772,36.772,0,0,1,14.468-.006.209.209,0,0,0,.226-.1l2.369-5.693a3.757,3.757,0,0,1,4.9-2.036L65.4,2.844a3.762,3.762,0,0,1,2.041,4.9l-2.362,5.675a.2.2,0,0,0,.069.261A36.678,36.678,0,0,1,75.375,23.907a.2.2,0,0,0,.249.076l5.68-2.362a3.759,3.759,0,0,1,4.915,2.043l2.555,6.159a3.743,3.743,0,0,1-2.057,4.9l-5.763,2.464.077.185.038.357a43.955,43.955,0,0,1,.422,12.259l-4.077-.446a39.792,39.792,0,0,0-.333-10.846A4.314,4.314,0,0,1,79.5,33.276l5.341-2.221-2.288-5.513-5.343,2.223a4.313,4.313,0,0,1-5.251-1.583A32.6,32.6,0,0,0,62.881,17.1,4.307,4.307,0,0,1,61.3,11.831L63.521,6.5,57.986,4.209,55.76,9.563a4.3,4.3,0,0,1-4.811,2.579,32.69,32.69,0,0,0-12.849,0,4.3,4.3,0,0,1-4.821-2.563l-2.23-5.358L25.546,6.5l2.213,5.324a4.3,4.3,0,0,1-1.581,5.25,32.6,32.6,0,0,0-9.085,9.083,4.31,4.31,0,0,1-5.262,1.578L6.5,25.516,4.213,31.028l5.343,2.223a4.316,4.316,0,0,1,2.584,4.807,32.607,32.607,0,0,0,0,12.853,4.31,4.31,0,0,1-2.565,4.821l-5.358,2.23,2.3,5.505,5.332-2.193a4.3,4.3,0,0,1,5.243,1.587,32.59,32.59,0,0,0,9.083,9.083,4.305,4.305,0,0,1,1.577,5.264l-2.209,5.309,5.526,2.315L33.3,79.477a4.317,4.317,0,0,1,5.474-2.4,38.17,38.17,0,0,0,9.885.811l.3,4.09a41.9,41.9,0,0,1-11.219-.927L37.28,80.9a.36.36,0,0,0-.193.151L34.727,86.72A3.73,3.73,0,0,1,32.7,88.754a3.765,3.765,0,0,1-2.871.005ZM26.035,44.694a18.7,18.7,0,1,1,18.7,18.7A18.718,18.718,0,0,1,26.035,44.694Zm4.1,0A14.595,14.595,0,1,0,44.732,30.1,14.611,14.611,0,0,0,30.137,44.694Z" transform="translate(0 0)" fill="#1a1446"/>
  </g>
</svg>
